<svg xmlns:dc="http://purl.org/dc/elements/1.1/" xmlns:cc="http://creativecommons.org/ns#" xmlns:rdf="http://www.w3.org/1999/02/22-rdf-syntax-ns#" xmlns:svg="http://www.w3.org/2000/svg" xmlns="http://www.w3.org/2000/svg" xmlns:xlink="http://www.w3.org/1999/xlink" version="1.1" encoding="UTF-8" standalone="no" width="800" height="600"><defs></defs><rect x="0" y="0" width="800" height="600" style="fill: #f0e9a4;"></rect><rect width="50" height="50" x="32.142857142857146" y="29.545454545454547" transform="rotate(0 57.142857142857146 54.54545454545455)  " style="fill: #f0b607; stroke: #2a240f; stroke-width: 2px; opacity: 0.6;"></rect><rect width="50" height="50" x="89.28571428571429" y="29.545454545454547" transform="rotate(0 114.28571428571429 54.54545454545455)  " style="fill: #eb9008; stroke: #2a240f; stroke-width: 2px; opacity: 0.6;"></rect><rect width="50" height="50" x="146.42857142857144" y="29.545454545454547" transform="rotate(0 171.42857142857144 54.54545454545455)  " style="fill: #c4cc33; stroke: #2a240f; stroke-width: 1px; opacity: 1;"></rect><rect width="50" height="50" x="203.57142857142858" y="29.545454545454547" transform="rotate(0 228.57142857142858 54.54545454545455)  " style="fill: #f0b607; stroke: #2a240f; stroke-width: 0px; opacity: 0.3;"></rect><rect width="50" height="50" x="260.7142857142857" y="29.545454545454547" transform="rotate(0 285.7142857142857 54.54545454545455)  " style="fill: #f0b607; stroke: #2a240f; stroke-width: 2px; opacity: 1;"></rect><rect width="50" height="50" x="317.8571428571429" y="29.545454545454547" transform="rotate(0 342.8571428571429 54.54545454545455)  " style="fill: #c4cc33; stroke: #2a240f; stroke-width: 2px; opacity: 0.3;"></rect><rect width="50" height="50" x="375" y="29.545454545454547" transform="rotate(0 400 54.54545454545455)  " style="fill: #eb9008; stroke: #2a240f; stroke-width: 1px; opacity: 0.3;"></rect><rect width="50" height="50" x="432.14285714285717" y="29.545454545454547" transform="rotate(0 457.14285714285717 54.54545454545455)  " style="fill: #f0b607; stroke: #2a240f; stroke-width: 0px; opacity: 0.3;"></rect><rect width="50" height="50" x="489.28571428571433" y="29.545454545454547" transform="rotate(0 514.2857142857143 54.54545454545455)  " style="fill: #f0b607; stroke: #2a240f; stroke-width: 2px; opacity: 1;"></rect><rect width="50" height="50" x="546.4285714285714" y="29.545454545454547" transform="rotate(0 571.4285714285714 54.54545454545455)  " style="fill: #c4cc33; stroke: #2a240f; stroke-width: 2px; opacity: 1;"></rect><rect width="50" height="50" x="603.5714285714286" y="29.545454545454547" transform="rotate(0 628.5714285714286 54.54545454545455)  " style="fill: #eb9008; stroke: #2a240f; stroke-width: 0px; opacity: 0.3;"></rect><rect width="50" height="50" x="660.7142857142858" y="29.545454545454547" transform="rotate(0 685.7142857142858 54.54545454545455)  " style="fill: #eb9008; stroke: #2a240f; stroke-width: 1px; opacity: 0.3;"></rect><rect width="50" height="50" x="717.8571428571429" y="29.545454545454547" transform="rotate(0 742.8571428571429 54.54545454545455)  " style="fill: #f0b607; stroke: #2a240f; stroke-width: 1px; opacity: 0.3;"></rect><rect width="50" height="50" x="32.142857142857146" y="84.0909090909091" transform="rotate(0 57.142857142857146 109.0909090909091)  " style="fill: #f0b607; stroke: #2a240f; stroke-width: 0px; opacity: 0.6;"></rect><rect width="50" height="50" x="89.28571428571429" y="84.0909090909091" transform="rotate(0 114.28571428571429 109.0909090909091)  " style="fill: #f0b607; stroke: #2a240f; stroke-width: 2px; opacity: 0.3;"></rect><rect width="50" height="50" x="146.42857142857144" y="84.0909090909091" transform="rotate(0 171.42857142857144 109.0909090909091)  " style="fill: #c4cc33; stroke: #2a240f; stroke-width: 2px; opacity: 0.3;"></rect><rect width="50" height="50" x="203.57142857142858" y="84.0909090909091" transform="rotate(0 228.57142857142858 109.0909090909091)  " style="fill: #f0b607; stroke: #2a240f; stroke-width: 0px; opacity: 1;"></rect><rect width="50" height="50" x="260.7142857142857" y="84.0909090909091" transform="rotate(0 285.7142857142857 109.0909090909091)  " style="fill: #c4cc33; stroke: #2a240f; stroke-width: 2px; opacity: 0.3;"></rect><rect width="50" height="50" x="317.8571428571429" y="84.0909090909091" transform="rotate(0 342.8571428571429 109.0909090909091)  " style="fill: #eb9008; stroke: #2a240f; stroke-width: 2px; opacity: 1;"></rect><rect width="50" height="50" x="375" y="84.0909090909091" transform="rotate(0 400 109.0909090909091)  " style="fill: #c4cc33; stroke: #2a240f; stroke-width: 1px; opacity: 0.6;"></rect><rect width="50" height="50" x="432.14285714285717" y="84.0909090909091" transform="rotate(0 457.14285714285717 109.0909090909091)  " style="fill: #f0b607; stroke: #2a240f; stroke-width: 0px; opacity: 0.3;"></rect><rect width="50" height="50" x="489.28571428571433" y="84.0909090909091" transform="rotate(0 514.2857142857143 109.0909090909091)  " style="fill: #c4cc33; stroke: #2a240f; stroke-width: 1px; opacity: 0.6;"></rect><rect width="50" height="50" x="546.4285714285714" y="84.0909090909091" transform="rotate(0 571.4285714285714 109.0909090909091)  " style="fill: #f0b607; stroke: #2a240f; stroke-width: 0px; opacity: 0.3;"></rect><rect width="50" height="50" x="603.5714285714286" y="84.0909090909091" transform="rotate(0 628.5714285714286 109.0909090909091)  " style="fill: #eb9008; stroke: #2a240f; stroke-width: 0px; opacity: 0.3;"></rect><rect width="50" height="50" x="660.7142857142858" y="84.0909090909091" transform="rotate(0 685.7142857142858 109.0909090909091)  " style="fill: #c4cc33; stroke: #2a240f; stroke-width: 1px; opacity: 1;"></rect><rect width="50" height="50" x="717.8571428571429" y="84.0909090909091" transform="rotate(0 742.8571428571429 109.0909090909091)  " style="fill: #c4cc33; stroke: #2a240f; stroke-width: 0px; opacity: 1;"></rect><rect width="50" height="50" x="32.142857142857146" y="138.63636363636363" transform="rotate(0 57.142857142857146 163.63636363636363)  " style="fill: #f0b607; stroke: #2a240f; stroke-width: 0px; opacity: 0.6;"></rect><rect width="50" height="50" x="89.28571428571429" y="138.63636363636363" transform="rotate(0 114.28571428571429 163.63636363636363)  " style="fill: #c4cc33; stroke: #2a240f; stroke-width: 2px; opacity: 1;"></rect><rect width="50" height="50" x="146.42857142857144" y="138.63636363636363" transform="rotate(0 171.42857142857144 163.63636363636363)  " style="fill: #f0b607; stroke: #2a240f; stroke-width: 1px; opacity: 0.6;"></rect><rect width="50" height="50" x="203.57142857142858" y="138.63636363636363" transform="rotate(0 228.57142857142858 163.63636363636363)  " style="fill: #f0b607; stroke: #2a240f; stroke-width: 1px; opacity: 0.3;"></rect><rect width="50" height="50" x="260.7142857142857" y="138.63636363636363" transform="rotate(0 285.7142857142857 163.63636363636363)  " style="fill: #eb9008; stroke: #2a240f; stroke-width: 0px; opacity: 1;"></rect><rect width="50" height="50" x="317.8571428571429" y="138.63636363636363" transform="rotate(0 342.8571428571429 163.63636363636363)  " style="fill: #c4cc33; stroke: #2a240f; stroke-width: 2px; opacity: 0.3;"></rect><rect width="50" height="50" x="375" y="138.63636363636363" transform="rotate(0 400 163.63636363636363)  " style="fill: #eb9008; stroke: #2a240f; stroke-width: 1px; opacity: 0.3;"></rect><rect width="50" height="50" x="432.14285714285717" y="138.63636363636363" transform="rotate(0 457.14285714285717 163.63636363636363)  " style="fill: #c4cc33; stroke: #2a240f; stroke-width: 1px; opacity: 0.3;"></rect><rect width="50" height="50" x="489.28571428571433" y="138.63636363636363" transform="rotate(0 514.2857142857143 163.63636363636363)  " style="fill: #eb9008; stroke: #2a240f; stroke-width: 0px; opacity: 0.6;"></rect><rect width="50" height="50" x="546.4285714285714" y="138.63636363636363" transform="rotate(0 571.4285714285714 163.63636363636363)  " style="fill: #f0b607; stroke: #2a240f; stroke-width: 1px; opacity: 1;"></rect><rect width="50" height="50" x="603.5714285714286" y="138.63636363636363" transform="rotate(0 628.5714285714286 163.63636363636363)  " style="fill: #eb9008; stroke: #2a240f; stroke-width: 2px; opacity: 0.3;"></rect><rect width="50" height="50" x="660.7142857142858" y="138.63636363636363" transform="rotate(0 685.7142857142858 163.63636363636363)  " style="fill: #c4cc33; stroke: #2a240f; stroke-width: 0px; opacity: 0.6;"></rect><rect width="50" height="50" x="717.8571428571429" y="138.63636363636363" transform="rotate(0 742.8571428571429 163.63636363636363)  " style="fill: #eb9008; stroke: #2a240f; stroke-width: 2px; opacity: 0.6;"></rect><rect width="50" height="50" x="32.142857142857146" y="193.1818181818182" transform="rotate(0 57.142857142857146 218.1818181818182)  " style="fill: #eb9008; stroke: #2a240f; stroke-width: 1px; opacity: 0.6;"></rect><rect width="50" height="50" x="89.28571428571429" y="193.1818181818182" transform="rotate(0 114.28571428571429 218.1818181818182)  " style="fill: #c4cc33; stroke: #2a240f; stroke-width: 0px; opacity: 1;"></rect><rect width="50" height="50" x="146.42857142857144" y="193.1818181818182" transform="rotate(0 171.42857142857144 218.1818181818182)  " style="fill: #f0b607; stroke: #2a240f; stroke-width: 0px; opacity: 1;"></rect><rect width="50" height="50" x="203.57142857142858" y="193.1818181818182" transform="rotate(0 228.57142857142858 218.1818181818182)  " style="fill: #f0b607; stroke: #2a240f; stroke-width: 2px; opacity: 1;"></rect><rect width="50" height="50" x="260.7142857142857" y="193.1818181818182" transform="rotate(0 285.7142857142857 218.1818181818182)  " style="fill: #c4cc33; stroke: #2a240f; stroke-width: 1px; opacity: 1;"></rect><rect width="50" height="50" x="317.8571428571429" y="193.1818181818182" transform="rotate(0 342.8571428571429 218.1818181818182)  " style="fill: #eb9008; stroke: #2a240f; stroke-width: 2px; opacity: 0.6;"></rect><rect width="50" height="50" x="375" y="193.1818181818182" transform="rotate(0 400 218.1818181818182)  " style="fill: #eb9008; stroke: #2a240f; stroke-width: 0px; opacity: 1;"></rect><rect width="50" height="50" x="432.14285714285717" y="193.1818181818182" transform="rotate(0 457.14285714285717 218.1818181818182)  " style="fill: #c4cc33; stroke: #2a240f; stroke-width: 2px; opacity: 1;"></rect><rect width="50" height="50" x="489.28571428571433" y="193.1818181818182" transform="rotate(0 514.2857142857143 218.1818181818182)  " style="fill: #eb9008; stroke: #2a240f; stroke-width: 2px; opacity: 0.6;"></rect><rect width="50" height="50" x="546.4285714285714" y="193.1818181818182" transform="rotate(0 571.4285714285714 218.1818181818182)  " style="fill: #eb9008; stroke: #2a240f; stroke-width: 0px; opacity: 0.3;"></rect><rect width="50" height="50" x="603.5714285714286" y="193.1818181818182" transform="rotate(0 628.5714285714286 218.1818181818182)  " style="fill: #eb9008; stroke: #2a240f; stroke-width: 1px; opacity: 0.3;"></rect><rect width="50" height="50" x="660.7142857142858" y="193.1818181818182" transform="rotate(0 685.7142857142858 218.1818181818182)  " style="fill: #f0b607; stroke: #2a240f; stroke-width: 2px; opacity: 0.3;"></rect><rect width="50" height="50" x="717.8571428571429" y="193.1818181818182" transform="rotate(0 742.8571428571429 218.1818181818182)  " style="fill: #eb9008; stroke: #2a240f; stroke-width: 1px; opacity: 0.3;"></rect><rect width="50" height="50" x="32.142857142857146" y="247.72727272727275" transform="rotate(0 57.142857142857146 272.72727272727275)  " style="fill: #eb9008; stroke: #2a240f; stroke-width: 0px; opacity: 0.6;"></rect><rect width="50" height="50" x="89.28571428571429" y="247.72727272727275" transform="rotate(0 114.28571428571429 272.72727272727275)  " style="fill: #eb9008; stroke: #2a240f; stroke-width: 0px; opacity: 0.6;"></rect><rect width="50" height="50" x="146.42857142857144" y="247.72727272727275" transform="rotate(0 171.42857142857144 272.72727272727275)  " style="fill: #f0b607; stroke: #2a240f; stroke-width: 1px; opacity: 1;"></rect><rect width="50" height="50" x="203.57142857142858" y="247.72727272727275" transform="rotate(0 228.57142857142858 272.72727272727275)  " style="fill: #eb9008; stroke: #2a240f; stroke-width: 1px; opacity: 1;"></rect><rect width="50" height="50" x="260.7142857142857" y="247.72727272727275" transform="rotate(0 285.7142857142857 272.72727272727275)  " style="fill: #f0b607; stroke: #2a240f; stroke-width: 2px; opacity: 1;"></rect><rect width="50" height="50" x="317.8571428571429" y="247.72727272727275" transform="rotate(0 342.8571428571429 272.72727272727275)  " style="fill: #f0b607; stroke: #2a240f; stroke-width: 2px; opacity: 0.3;"></rect><rect width="50" height="50" x="375" y="247.72727272727275" transform="rotate(0 400 272.72727272727275)  " style="fill: #eb9008; stroke: #2a240f; stroke-width: 0px; opacity: 0.3;"></rect><rect width="50" height="50" x="432.14285714285717" y="247.72727272727275" transform="rotate(0 457.14285714285717 272.72727272727275)  " style="fill: #f0b607; stroke: #2a240f; stroke-width: 0px; opacity: 0.6;"></rect><rect width="50" height="50" x="489.28571428571433" y="247.72727272727275" transform="rotate(0 514.2857142857143 272.72727272727275)  " style="fill: #f0b607; stroke: #2a240f; stroke-width: 0px; opacity: 0.3;"></rect><rect width="50" height="50" x="546.4285714285714" y="247.72727272727275" transform="rotate(0 571.4285714285714 272.72727272727275)  " style="fill: #f0b607; stroke: #2a240f; stroke-width: 0px; opacity: 0.6;"></rect><rect width="50" height="50" x="603.5714285714286" y="247.72727272727275" transform="rotate(0 628.5714285714286 272.72727272727275)  " style="fill: #eb9008; stroke: #2a240f; stroke-width: 2px; opacity: 1;"></rect><rect width="50" height="50" x="660.7142857142858" y="247.72727272727275" transform="rotate(0 685.7142857142858 272.72727272727275)  " style="fill: #eb9008; stroke: #2a240f; stroke-width: 2px; opacity: 1;"></rect><rect width="50" height="50" x="717.8571428571429" y="247.72727272727275" transform="rotate(0 742.8571428571429 272.72727272727275)  " style="fill: #eb9008; stroke: #2a240f; stroke-width: 0px; opacity: 0.6;"></rect><rect width="50" height="50" x="32.142857142857146" y="302.27272727272725" transform="rotate(0 57.142857142857146 327.27272727272725)  " style="fill: #c4cc33; stroke: #2a240f; stroke-width: 0px; opacity: 0.3;"></rect><rect width="50" height="50" x="89.28571428571429" y="302.27272727272725" transform="rotate(0 114.28571428571429 327.27272727272725)  " style="fill: #f0b607; stroke: #2a240f; stroke-width: 0px; opacity: 1;"></rect><rect width="50" height="50" x="146.42857142857144" y="302.27272727272725" transform="rotate(0 171.42857142857144 327.27272727272725)  " style="fill: #f0b607; stroke: #2a240f; stroke-width: 2px; opacity: 1;"></rect><rect width="50" height="50" x="203.57142857142858" y="302.27272727272725" transform="rotate(0 228.57142857142858 327.27272727272725)  " style="fill: #c4cc33; stroke: #2a240f; stroke-width: 1px; opacity: 1;"></rect><rect width="50" height="50" x="260.7142857142857" y="302.27272727272725" transform="rotate(0 285.7142857142857 327.27272727272725)  " style="fill: #c4cc33; stroke: #2a240f; stroke-width: 0px; opacity: 1;"></rect><rect width="50" height="50" x="317.8571428571429" y="302.27272727272725" transform="rotate(0 342.8571428571429 327.27272727272725)  " style="fill: #c4cc33; stroke: #2a240f; stroke-width: 2px; opacity: 1;"></rect><rect width="50" height="50" x="375" y="302.27272727272725" transform="rotate(0 400 327.27272727272725)  " style="fill: #c4cc33; stroke: #2a240f; stroke-width: 0px; opacity: 0.6;"></rect><rect width="50" height="50" x="432.14285714285717" y="302.27272727272725" transform="rotate(0 457.14285714285717 327.27272727272725)  " style="fill: #f0b607; stroke: #2a240f; stroke-width: 2px; opacity: 0.3;"></rect><rect width="50" height="50" x="489.28571428571433" y="302.27272727272725" transform="rotate(0 514.2857142857143 327.27272727272725)  " style="fill: #c4cc33; stroke: #2a240f; stroke-width: 2px; opacity: 0.6;"></rect><rect width="50" height="50" x="546.4285714285714" y="302.27272727272725" transform="rotate(0 571.4285714285714 327.27272727272725)  " style="fill: #eb9008; stroke: #2a240f; stroke-width: 0px; opacity: 1;"></rect><rect width="50" height="50" x="603.5714285714286" y="302.27272727272725" transform="rotate(0 628.5714285714286 327.27272727272725)  " style="fill: #eb9008; stroke: #2a240f; stroke-width: 2px; opacity: 0.3;"></rect><rect width="50" height="50" x="660.7142857142858" y="302.27272727272725" transform="rotate(0 685.7142857142858 327.27272727272725)  " style="fill: #c4cc33; stroke: #2a240f; stroke-width: 0px; opacity: 0.6;"></rect><rect width="50" height="50" x="717.8571428571429" y="302.27272727272725" transform="rotate(0 742.8571428571429 327.27272727272725)  " style="fill: #eb9008; stroke: #2a240f; stroke-width: 1px; opacity: 0.3;"></rect><rect width="50" height="50" x="32.142857142857146" y="356.8181818181818" transform="rotate(0 57.142857142857146 381.8181818181818)  " style="fill: #f0b607; stroke: #2a240f; stroke-width: 2px; opacity: 1;"></rect><rect width="50" height="50" x="89.28571428571429" y="356.8181818181818" transform="rotate(0 114.28571428571429 381.8181818181818)  " style="fill: #eb9008; stroke: #2a240f; stroke-width: 1px; opacity: 0.3;"></rect><rect width="50" height="50" x="146.42857142857144" y="356.8181818181818" transform="rotate(0 171.42857142857144 381.8181818181818)  " style="fill: #c4cc33; stroke: #2a240f; stroke-width: 0px; opacity: 0.6;"></rect><rect width="50" height="50" x="203.57142857142858" y="356.8181818181818" transform="rotate(0 228.57142857142858 381.8181818181818)  " style="fill: #c4cc33; stroke: #2a240f; stroke-width: 0px; opacity: 0.3;"></rect><rect width="50" height="50" x="260.7142857142857" y="356.8181818181818" transform="rotate(0 285.7142857142857 381.8181818181818)  " style="fill: #eb9008; stroke: #2a240f; stroke-width: 2px; opacity: 0.6;"></rect><rect width="50" height="50" x="317.8571428571429" y="356.8181818181818" transform="rotate(0 342.8571428571429 381.8181818181818)  " style="fill: #f0b607; stroke: #2a240f; stroke-width: 1px; opacity: 0.3;"></rect><rect width="50" height="50" x="375" y="356.8181818181818" transform="rotate(0 400 381.8181818181818)  " style="fill: #f0b607; stroke: #2a240f; stroke-width: 2px; opacity: 0.3;"></rect><rect width="50" height="50" x="432.14285714285717" y="356.8181818181818" transform="rotate(0 457.14285714285717 381.8181818181818)  " style="fill: #eb9008; stroke: #2a240f; stroke-width: 1px; opacity: 1;"></rect><rect width="50" height="50" x="489.28571428571433" y="356.8181818181818" transform="rotate(0 514.2857142857143 381.8181818181818)  " style="fill: #eb9008; stroke: #2a240f; stroke-width: 0px; opacity: 0.3;"></rect><rect width="50" height="50" x="546.4285714285714" y="356.8181818181818" transform="rotate(0 571.4285714285714 381.8181818181818)  " style="fill: #eb9008; stroke: #2a240f; stroke-width: 1px; opacity: 0.6;"></rect><rect width="50" height="50" x="603.5714285714286" y="356.8181818181818" transform="rotate(0 628.5714285714286 381.8181818181818)  " style="fill: #f0b607; stroke: #2a240f; stroke-width: 2px; opacity: 0.3;"></rect><rect width="50" height="50" x="660.7142857142858" y="356.8181818181818" transform="rotate(0 685.7142857142858 381.8181818181818)  " style="fill: #f0b607; stroke: #2a240f; stroke-width: 2px; opacity: 0.3;"></rect><rect width="50" height="50" x="717.8571428571429" y="356.8181818181818" transform="rotate(0 742.8571428571429 381.8181818181818)  " style="fill: #f0b607; stroke: #2a240f; stroke-width: 0px; opacity: 1;"></rect><rect width="50" height="50" x="32.142857142857146" y="411.3636363636364" transform="rotate(0 57.142857142857146 436.3636363636364)  " style="fill: #eb9008; stroke: #2a240f; stroke-width: 2px; opacity: 1;"></rect><rect width="50" height="50" x="89.28571428571429" y="411.3636363636364" transform="rotate(0 114.28571428571429 436.3636363636364)  " style="fill: #f0b607; stroke: #2a240f; stroke-width: 0px; opacity: 1;"></rect><rect width="50" height="50" x="146.42857142857144" y="411.3636363636364" transform="rotate(0 171.42857142857144 436.3636363636364)  " style="fill: #c4cc33; stroke: #2a240f; stroke-width: 0px; opacity: 0.6;"></rect><rect width="50" height="50" x="203.57142857142858" y="411.3636363636364" transform="rotate(0 228.57142857142858 436.3636363636364)  " style="fill: #f0b607; stroke: #2a240f; stroke-width: 2px; opacity: 0.6;"></rect><rect width="50" height="50" x="260.7142857142857" y="411.3636363636364" transform="rotate(0 285.7142857142857 436.3636363636364)  " style="fill: #c4cc33; stroke: #2a240f; stroke-width: 0px; opacity: 0.6;"></rect><rect width="50" height="50" x="317.8571428571429" y="411.3636363636364" transform="rotate(0 342.8571428571429 436.3636363636364)  " style="fill: #eb9008; stroke: #2a240f; stroke-width: 1px; opacity: 1;"></rect><rect width="50" height="50" x="375" y="411.3636363636364" transform="rotate(0 400 436.3636363636364)  " style="fill: #c4cc33; stroke: #2a240f; stroke-width: 0px; opacity: 0.6;"></rect><rect width="50" height="50" x="432.14285714285717" y="411.3636363636364" transform="rotate(0 457.14285714285717 436.3636363636364)  " style="fill: #c4cc33; stroke: #2a240f; stroke-width: 2px; opacity: 0.3;"></rect><rect width="50" height="50" x="489.28571428571433" y="411.3636363636364" transform="rotate(0 514.2857142857143 436.3636363636364)  " style="fill: #f0b607; stroke: #2a240f; stroke-width: 0px; opacity: 0.6;"></rect><rect width="50" height="50" x="546.4285714285714" y="411.3636363636364" transform="rotate(0 571.4285714285714 436.3636363636364)  " style="fill: #c4cc33; stroke: #2a240f; stroke-width: 2px; opacity: 0.3;"></rect><rect width="50" height="50" x="603.5714285714286" y="411.3636363636364" transform="rotate(0 628.5714285714286 436.3636363636364)  " style="fill: #c4cc33; stroke: #2a240f; stroke-width: 1px; opacity: 1;"></rect><rect width="50" height="50" x="660.7142857142858" y="411.3636363636364" transform="rotate(0 685.7142857142858 436.3636363636364)  " style="fill: #c4cc33; stroke: #2a240f; stroke-width: 1px; opacity: 0.3;"></rect><rect width="50" height="50" x="717.8571428571429" y="411.3636363636364" transform="rotate(0 742.8571428571429 436.3636363636364)  " style="fill: #c4cc33; stroke: #2a240f; stroke-width: 2px; opacity: 0.3;"></rect><rect width="50" height="50" x="32.142857142857146" y="465.90909090909093" transform="rotate(0 57.142857142857146 490.90909090909093)  " style="fill: #f0b607; stroke: #2a240f; stroke-width: 1px; opacity: 0.6;"></rect><rect width="50" height="50" x="89.28571428571429" y="465.90909090909093" transform="rotate(0 114.28571428571429 490.90909090909093)  " style="fill: #eb9008; stroke: #2a240f; stroke-width: 2px; opacity: 0.3;"></rect><rect width="50" height="50" x="146.42857142857144" y="465.90909090909093" transform="rotate(0 171.42857142857144 490.90909090909093)  " style="fill: #f0b607; stroke: #2a240f; stroke-width: 2px; opacity: 0.3;"></rect><rect width="50" height="50" x="203.57142857142858" y="465.90909090909093" transform="rotate(0 228.57142857142858 490.90909090909093)  " style="fill: #eb9008; stroke: #2a240f; stroke-width: 0px; opacity: 1;"></rect><rect width="50" height="50" x="260.7142857142857" y="465.90909090909093" transform="rotate(0 285.7142857142857 490.90909090909093)  " style="fill: #c4cc33; stroke: #2a240f; stroke-width: 1px; opacity: 1;"></rect><rect width="50" height="50" x="317.8571428571429" y="465.90909090909093" transform="rotate(0 342.8571428571429 490.90909090909093)  " style="fill: #eb9008; stroke: #2a240f; stroke-width: 0px; opacity: 0.3;"></rect><rect width="50" height="50" x="375" y="465.90909090909093" transform="rotate(0 400 490.90909090909093)  " style="fill: #eb9008; stroke: #2a240f; stroke-width: 2px; opacity: 0.6;"></rect><rect width="50" height="50" x="432.14285714285717" y="465.90909090909093" transform="rotate(0 457.14285714285717 490.90909090909093)  " style="fill: #f0b607; stroke: #2a240f; stroke-width: 0px; opacity: 0.6;"></rect><rect width="50" height="50" x="489.28571428571433" y="465.90909090909093" transform="rotate(0 514.2857142857143 490.90909090909093)  " style="fill: #f0b607; stroke: #2a240f; stroke-width: 0px; opacity: 0.3;"></rect><rect width="50" height="50" x="546.4285714285714" y="465.90909090909093" transform="rotate(0 571.4285714285714 490.90909090909093)  " style="fill: #c4cc33; stroke: #2a240f; stroke-width: 0px; opacity: 0.3;"></rect><rect width="50" height="50" x="603.5714285714286" y="465.90909090909093" transform="rotate(0 628.5714285714286 490.90909090909093)  " style="fill: #f0b607; stroke: #2a240f; stroke-width: 2px; opacity: 1;"></rect><rect width="50" height="50" x="660.7142857142858" y="465.90909090909093" transform="rotate(0 685.7142857142858 490.90909090909093)  " style="fill: #eb9008; stroke: #2a240f; stroke-width: 1px; opacity: 0.6;"></rect><rect width="50" height="50" x="717.8571428571429" y="465.90909090909093" transform="rotate(0 742.8571428571429 490.90909090909093)  " style="fill: #c4cc33; stroke: #2a240f; stroke-width: 0px; opacity: 0.6;"></rect><rect width="50" height="50" x="32.142857142857146" y="520.4545454545455" transform="rotate(0 57.142857142857146 545.4545454545455)  " style="fill: #c4cc33; stroke: #2a240f; stroke-width: 2px; opacity: 0.6;"></rect><rect width="50" height="50" x="89.28571428571429" y="520.4545454545455" transform="rotate(0 114.28571428571429 545.4545454545455)  " style="fill: #c4cc33; stroke: #2a240f; stroke-width: 2px; opacity: 0.3;"></rect><rect width="50" height="50" x="146.42857142857144" y="520.4545454545455" transform="rotate(0 171.42857142857144 545.4545454545455)  " style="fill: #eb9008; stroke: #2a240f; stroke-width: 2px; opacity: 1;"></rect><rect width="50" height="50" x="203.57142857142858" y="520.4545454545455" transform="rotate(0 228.57142857142858 545.4545454545455)  " style="fill: #c4cc33; stroke: #2a240f; stroke-width: 0px; opacity: 1;"></rect><rect width="50" height="50" x="260.7142857142857" y="520.4545454545455" transform="rotate(0 285.7142857142857 545.4545454545455)  " style="fill: #c4cc33; stroke: #2a240f; stroke-width: 2px; opacity: 0.3;"></rect><rect width="50" height="50" x="317.8571428571429" y="520.4545454545455" transform="rotate(0 342.8571428571429 545.4545454545455)  " style="fill: #c4cc33; stroke: #2a240f; stroke-width: 1px; opacity: 1;"></rect><rect width="50" height="50" x="375" y="520.4545454545455" transform="rotate(0 400 545.4545454545455)  " style="fill: #c4cc33; stroke: #2a240f; stroke-width: 1px; opacity: 1;"></rect><rect width="50" height="50" x="432.14285714285717" y="520.4545454545455" transform="rotate(0 457.14285714285717 545.4545454545455)  " style="fill: #c4cc33; stroke: #2a240f; stroke-width: 2px; opacity: 1;"></rect><rect width="50" height="50" x="489.28571428571433" y="520.4545454545455" transform="rotate(0 514.2857142857143 545.4545454545455)  " style="fill: #c4cc33; stroke: #2a240f; stroke-width: 2px; opacity: 0.3;"></rect><rect width="50" height="50" x="546.4285714285714" y="520.4545454545455" transform="rotate(0 571.4285714285714 545.4545454545455)  " style="fill: #eb9008; stroke: #2a240f; stroke-width: 1px; opacity: 0.3;"></rect><rect width="50" height="50" x="603.5714285714286" y="520.4545454545455" transform="rotate(0 628.5714285714286 545.4545454545455)  " style="fill: #f0b607; stroke: #2a240f; stroke-width: 0px; opacity: 1;"></rect><rect width="50" height="50" x="660.7142857142858" y="520.4545454545455" transform="rotate(0 685.7142857142858 545.4545454545455)  " style="fill: #c4cc33; stroke: #2a240f; stroke-width: 0px; opacity: 1;"></rect><rect width="50" height="50" x="717.8571428571429" y="520.4545454545455" transform="rotate(0 742.8571428571429 545.4545454545455)  " style="fill: #eb9008; stroke: #2a240f; stroke-width: 2px; opacity: 1;"></rect></svg>